HIERARCHY
ROOT Hips
{
	OFFSET 0.000000 0.000000 0.000000
	CHANNELS 6 Xposition Yposition Zposition Xrotation Yrotation Zrotation
	JOINT LeftUpLeg_virtual
	{
		OFFSET 0.000000 0.000000 0.000000
		CHANNELS 3 Xrotation Yrotation Zrotation
		JOINT LeftUpLeg
		{
			OFFSET 15.427100 -6.655098 0.678600
			CHANNELS 3 Xrotation Yrotation Zrotation
			JOINT LeftLeg
			{
				OFFSET 4.081073 -39.591068 13.024000
				CHANNELS 3 Xrotation Yrotation Zrotation
				JOINT LeftFoot
				{
					OFFSET -4.081074 -37.707932 -15.979700
					CHANNELS 3 Xrotation Yrotation Zrotation
					JOINT LeftToeBase
					{
						OFFSET 5.346399 -15.068900 20.645000
						CHANNELS 3 Xrotation Yrotation Zrotation
						JOINT LeftToe_End
						{
							OFFSET 2.754700 0.931300 11.300900
							CHANNELS 3 Xrotation Yrotation Zrotation
							End Site
							{
								OFFSET 0 0 0
							}
						}
					}
				}
			}
		}
	}
	JOINT RightUpLeg_virtual
	{
		OFFSET 0.000000 0.000000 0.000000
		CHANNELS 3 Xrotation Yrotation Zrotation
		JOINT RightUpLeg
		{
			OFFSET -15.569500 -6.655098 0.678600
			CHANNELS 3 Xrotation Yrotation Zrotation
			JOINT RightLeg
			{
				OFFSET -4.081825 -39.591045 13.023800
				CHANNELS 3 Xrotation Yrotation Zrotation
				JOINT RightFoot
				{
					OFFSET 4.081824 -37.707954 -15.979600
					CHANNELS 3 Xrotation Yrotation Zrotation
					JOINT RightToeBase
					{
						OFFSET -5.346400 -15.068900 20.645000
						CHANNELS 3 Xrotation Yrotation Zrotation
						JOINT RightToe_End
						{
							OFFSET -2.754700 0.931300 11.300900
							CHANNELS 3 Xrotation Yrotation Zrotation
							End Site
							{
								OFFSET 0 0 0
							}
						}
					}
				}
			}
		}
	}
	JOINT Spine_virtual
	{
		OFFSET 0.000000 0.000000 0.000000
		CHANNELS 3 Xrotation Yrotation Zrotation
		JOINT Spine
		{
			OFFSET -0.279200 12.230698 -2.892100
			CHANNELS 3 Xrotation Yrotation Zrotation
			JOINT Spine1
			{
				OFFSET -0.232667 10.192268 -1.242267
				CHANNELS 3 Xrotation Yrotation Zrotation
				JOINT Spine1_split
				{
					OFFSET -0.232667 10.192268 -1.242267
					CHANNELS 3 Xrotation Yrotation Zrotation
					JOINT Spine2
					{
						OFFSET -0.232667 10.192268 -1.242267
						CHANNELS 3 Xrotation Yrotation Zrotation
						JOINT Neck_virtual
						{
							OFFSET 0.000000 0.000000 0.000000
							CHANNELS 3 Xrotation Yrotation Zrotation
							JOINT Neck
							{
								OFFSET -0.418800 17.814194 8.416900
								CHANNELS 3 Xrotation Yrotation Zrotation
								JOINT Head
								{
									OFFSET 0.000000 7.031097 3.806800
									CHANNELS 3 Xrotation Yrotation Zrotation
									JOINT HeadTop_End
									{
										OFFSET 0.000000 24.646606 12.978600
										CHANNELS 3 Xrotation Yrotation Zrotation
										End Site
										{
											OFFSET 0 0 0
										}
									}
								}
							}
						}
						JOINT LeftShoulder_virtual
						{
							OFFSET 0.000000 0.000000 0.000000
							CHANNELS 3 Xrotation Yrotation Zrotation
							JOINT LeftShoulder
							{
								OFFSET 8.476499 7.247704 -3.868750
								CHANNELS 3 Xrotation Yrotation Zrotation
								JOINT LeftShoulder_split
								{
									OFFSET 8.476499 7.247704 -3.868750
									CHANNELS 3 Xrotation Yrotation Zrotation
									JOINT LeftArm
									{
										OFFSET 9.308998 -2.777710 0.208600
										CHANNELS 3 Xrotation Yrotation Zrotation
										JOINT LeftForeArm
										{
											OFFSET 29.972298 0.000000 0.000000
											CHANNELS 3 Xrotation Yrotation Zrotation
											JOINT LeftHand
											{
												OFFSET 26.026505 0.000000 0.000000
												CHANNELS 3 Xrotation Yrotation Zrotation
												End Site
												{
													OFFSET 0 0 0
												}
											}
										}
									}
								}
							}
						}
						JOINT RightShoulder_virtual
						{
							OFFSET 0.000000 0.000000 0.000000
							CHANNELS 3 Xrotation Yrotation Zrotation
							JOINT RightShoulder
							{
								OFFSET -7.570500 7.247704 -3.868750
								CHANNELS 3 Xrotation Yrotation Zrotation
								JOINT RightShoulder_split
								{
									OFFSET -7.570500 7.247704 -3.868750
									CHANNELS 3 Xrotation Yrotation Zrotation
									JOINT RightArm
									{
										OFFSET -9.308998 -2.777710 0.208500
										CHANNELS 3 Xrotation Yrotation Zrotation
										JOINT RightForeArm
										{
											OFFSET -29.972300 0.000000 0.000000
											CHANNELS 3 Xrotation Yrotation Zrotation
											JOINT RightHand
											{
												OFFSET -26.026505 0.000000 0.000000
												CHANNELS 3 Xrotation Yrotation Zrotation
												End Site
												{
													OFFSET 0 0 0
												}
											}
										}
									}
								}
							}
						}
					}
				}
			}
		}
	}
}
MOTION
Frames: 8
Frame Time: 0.03333333
0.563345 70.104942 -0.240662 0.000000 0.000000 0.000000 11.688328 6.138489 -1.065577 -50.652837 1.838273 4.214406 68.204896 7.568057 0.518460 -28.840935 7.929315 -7.426294 -3.276513 -0.296523 0.600159 0.000000 0.000000 0.000000 12.031734 5.725287 -0.946561 -48.021592 -12.087427 -6.049526 70.746949 -7.627829 -7.017238 -31.525493 -9.876645 4.746750 3.570780 1.353424 -0.140552 0.000000 0.000000 0.000000 12.120123 2.959081 -0.769999 9.010276 1.396117 1.625408 8.893464 1.907602 -0.418746 0.894273 -0.936397 0.447329 0.000000 0.000000 0.000000 9.127626 0.832460 0.146362 -10.401599 -1.244035 5.870570 -25.705265 1.634895 -7.634299 0.000000 0.000000 0.000000 9.306973 0.519362 0.014230 3.331788 -24.501144 3.689330 -2.691172 0.348330 -3.325856 -62.523101 -24.812867 -64.919739 177.667618 -72.357733 175.962571 0.000000 0.000000 0.000000 8.393278 0.616043 0.261070 -0.018368 12.121888 10.793920 0.669124 7.064906 0.367494 -62.866051 31.358242 50.665015 -178.976460 69.988081 178.325748 0.000000 0.000000 0.000000 
0.563162 70.110199 -0.216484 0.000000 0.000000 0.000000 11.697502 6.135591 -1.075902 -50.661265 1.835372 4.229721 68.202724 7.576011 0.510901 -28.845129 7.932231 -7.426451 -3.265973 -0.295542 0.594506 0.000000 0.000000 0.000000 12.040710 5.721370 -0.956610 -48.006384 -12.084596 -6.028906 70.738234 -7.629739 -7.019087 -31.529301 -9.875251 4.755577 3.556167 1.354939 -0.144063 0.000000 0.000000 0.000000 12.128398 2.953192 -0.781129 9.006389 1.400280 1.616979 8.889674 1.910603 -0.427149 0.903288 -0.919313 0.425888 0.000000 0.000000 0.000000 9.124695 0.836834 0.137452 -10.385531 -1.258523 5.892540 -25.698650 1.626014 -7.634171 0.000000 0.000000 0.000000 9.303909 0.525388 0.012671 3.336399 -24.497904 3.696847 -2.659046 0.327992 -3.336376 -62.613997 -24.853387 -65.003764 177.693764 -72.248464 175.986340 0.000000 0.000000 0.000000 8.386195 0.617540 0.254238 -0.021991 12.105524 10.806589 0.650592 7.107732 0.384564 -62.920352 31.346825 50.723987 -178.977908 69.857563 178.311569 0.000000 0.000000 0.000000 
0.569908 70.115471 -0.193649 0.000000 0.000000 0.000000 11.711976 6.126685 -1.094825 -50.675059 1.828021 4.256614 68.210517 7.579862 0.502447 -28.859120 7.933080 -7.426817 -3.255646 -0.294678 0.587100 0.000000 0.000000 0.000000 12.054527 5.716074 -0.976985 -47.988742 -12.094729 -6.002712 70.719034 -7.630327 -7.022548 -31.527757 -9.868521 4.768998 3.550769 1.357036 -0.151210 0.000000 0.000000 0.000000 12.140102 2.932022 -0.797419 9.010923 1.416548 1.604331 8.870443 1.928739 -0.436994 0.910394 -0.903251 0.411905 0.000000 0.000000 0.000000 9.107466 0.855558 0.123808 -10.373851 -1.284371 5.940057 -25.697113 1.594757 -7.624474 0.000000 0.000000 0.000000 9.280494 0.546626 0.009424 3.339514 -24.491349 3.704721 -2.641459 0.314143 -3.343411 -62.715125 -24.940535 -65.121892 177.684475 -72.137985 175.971232 0.000000 0.000000 0.000000 8.365148 0.633958 0.243227 -0.027582 12.084928 10.845849 0.659841 7.125630 0.395913 -63.005702 31.297037 50.787340 -178.953893 69.707517 178.267978 0.000000 0.000000 0.000000 
0.584017 70.118294 -0.175842 0.000000 0.000000 0.000000 11.726771 6.114064 -1.115006 -50.690351 1.820143 4.284582 68.227265 7.578750 0.495446 -28.876790 7.930701 -7.427161 -3.250353 -0.294727 0.582053 0.000000 0.000000 0.000000 12.069305 5.708316 -0.999714 -47.977035 -12.112348 -5.982456 70.696959 -7.628718 -7.026599 -31.518348 -9.860261 4.786145 3.552817 1.359544 -0.159569 0.000000 0.000000 0.000000 12.151953 2.900297 -0.811500 9.021908 1.440676 1.589468 8.841136 1.956924 -0.446275 0.907360 -0.884371 0.407799 0.000000 0.000000 0.000000 9.079715 0.884460 0.108745 -10.373418 -1.314471 6.000789 -25.710369 1.550811 -7.610313 0.000000 0.000000 0.000000 9.244896 0.576557 0.003070 3.340729 -24.487951 3.709267 -2.643981 0.330844 -3.348695 -62.790332 -25.033721 -65.219298 177.647756 -72.090604 175.933556 0.000000 0.000000 0.000000 8.334434 0.661310 0.231194 -0.034080 12.062388 10.902282 0.685687 7.117623 0.404756 -63.089132 31.228499 50.822410 -178.922447 69.602428 178.217134 0.000000 0.000000 0.000000 
0.602674 70.119324 -0.161671 0.000000 0.000000 0.000000 11.737578 6.105011 -1.130203 -50.699879 1.818496 4.303352 68.244006 7.574889 0.490309 -28.892967 7.926133 -7.424214 -3.250905 -0.296048 0.582068 0.000000 0.000000 0.000000 12.080663 5.701991 -1.016762 -47.972735 -12.129441 -5.975397 70.679296 -7.624731 -7.032003 -31.501348 -9.855678 4.806801 3.552650 1.361552 -0.165923 0.000000 0.000000 0.000000 12.162277 2.872404 -0.819069 9.037109 1.464941 1.573370 8.808109 1.987084 -0.454316 0.904419 -0.865170 0.412652 0.000000 0.000000 0.000000 9.047718 0.914864 0.095739 -10.389910 -1.341793 6.058511 -25.743454 1.511018 -7.596831 0.000000 0.000000 0.000000 9.206407 0.606017 -0.005967 3.341233 -24.491834 3.710210 -2.658267 0.376064 -3.360921 -62.818028 -25.111211 -65.258940 177.605450 -72.127057 175.900280 0.000000 0.000000 0.000000 8.300755 0.692253 0.220517 -0.039712 12.042190 10.960141 0.717889 7.096341 0.402561 -63.153398 31.167215 50.820818 -178.898924 69.578072 178.179432 0.000000 0.000000 0.000000 
0.622504 70.120689 -0.152203 0.000000 0.000000 0.000000 11.744982 6.103063 -1.134995 -50.701157 1.828605 4.305569 68.249757 7.572142 0.487008 -28.903988 7.922225 -7.416594 -3.254276 -0.297987 0.586113 0.000000 0.000000 0.000000 12.088635 5.699517 -1.023309 -47.975211 -12.138755 -5.982812 70.668880 -7.619475 -7.040203 -31.479758 -9.858255 4.829176 3.545247 1.362644 -0.168689 0.000000 0.000000 0.000000 12.169914 2.856594 -0.815898 9.052939 1.481790 1.559056 8.777199 2.010611 -0.461101 0.900392 -0.861359 0.416915 0.000000 0.000000 0.000000 9.019920 0.938504 0.086650 -10.421579 -1.359809 6.101010 -25.788566 1.492235 -7.585546 0.000000 0.000000 0.000000 9.173803 0.626835 -0.018149 3.341139 -24.499076 3.707715 -2.679998 0.425820 -3.381931 -62.803173 -25.146248 -65.235629 177.572966 -72.225303 175.886073 0.000000 0.000000 0.000000 8.272406 0.718190 0.211844 -0.042178 12.025692 11.004258 0.745697 7.072305 0.388993 -63.196114 31.142353 50.800905 -178.894539 69.624141 178.168749 0.000000 0.000000 0.000000 
0.639940 70.124817 -0.146187 0.000000 0.000000 0.000000 11.749435 6.105239 -1.129656 -50.692155 1.851213 4.292274 68.235523 7.571820 0.488603 -28.904859 7.919685 -7.407424 -3.258334 -0.299989 0.592650 0.000000 0.000000 0.000000 12.093071 5.699827 -1.018199 -47.980928 -12.137497 -6.001254 70.661893 -7.614455 -7.051266 -31.457628 -9.867485 4.851051 3.537561 1.362598 -0.166847 0.000000 0.000000 0.000000 12.174786 2.858139 -0.805747 9.066415 1.487262 1.547758 8.753220 2.022292 -0.466906 0.898082 -0.869136 0.417060 0.000000 0.000000 0.000000 9.002932 0.950469 0.081621 -10.462783 -1.366017 6.121962 -25.833483 1.498100 -7.576472 0.000000 0.000000 0.000000 9.153183 0.636162 -0.029594 3.339847 -24.501649 3.703381 -2.703626 0.465687 -3.412200 -62.771863 -25.140553 -65.184074 177.569332 -72.330303 175.906850 0.000000 0.000000 0.000000 8.251429 0.731833 0.204954 -0.040619 12.010923 11.029295 0.761024 7.053676 0.384626 -63.226542 31.165108 50.789000 -178.911191 69.693953 178.186194 0.000000 0.000000 0.000000 
0.653259 70.135307 -0.142048 0.000000 0.000000 0.000000 11.754359 6.111583 -1.119146 -50.672221 1.882167 4.267867 68.198961 7.574718 0.495488 -28.898534 7.918827 -7.397218 -3.258680 -0.301680 0.599120 0.000000 0.000000 0.000000 12.097070 5.706329 -1.007441 -47.985316 -12.130887 -6.022809 70.653662 -7.611880 -7.063826 -31.438350 -9.881725 4.870426 3.535828 1.361546 -0.161563 0.000000 0.000000 0.000000 12.180772 2.878807 -0.797379 9.076220 1.480934 1.542346 8.737721 2.021368 -0.471212 0.901831 -0.883589 0.418446 0.000000 0.000000 0.000000 8.998774 0.948933 0.080674 -10.502209 -1.362363 6.123624 -25.862960 1.522023 -7.566866 0.000000 0.000000 0.000000 9.144008 0.635468 -0.035967 3.337608 -24.492358 3.700850 -2.724567 0.482185 -3.430591 -62.755327 -25.116414 -65.151091 177.587896 -72.385484 175.945291 0.000000 0.000000 0.000000 8.241743 0.731485 0.198513 -0.035466 11.998278 11.035867 0.760777 7.050048 0.388884 -63.259826 31.225644 50.806769 -178.938047 69.737208 178.219716 0.000000 0.000000 0.000000 
